<svg xmlns="http://www.w3.org/2000/svg" width="82" height="66" viewBox="0 0 82 66">
  <g>
    <path d="M76,9 L66.5,9 L58.5,9 L51.5,9 L51.5,3.503 C51.5,1.571 49.929,0 47.997,0 L34.002,0 C32.071,0 30.5,1.571 30.5,3.503 L30.5,9 L23.5,9 L15.5,9 L6,9 C2.967,9 0.5,11.468 0.5,14.5 L0.5,60.501 C0.5,63.533 2.967,66 6,66 L15.5,66 L23.5,66 L58.5,66 L66.5,66 L76,66 C79.032,66 81.5,63.533 81.5,60.501 L81.5,14.5 C81.5,11.468 79.032,9 76,9 Z M33.5,3.503 C33.5,3.23 33.73,3 34.002,3 L47.997,3 C48.269,3 48.5,3.23 48.5,3.503 L48.5,9 L33.5,9 L33.5,3.503 Z M15.5,42.389 C15.175,42.463 14.84,42.5 14.5,42.5 C12.019,42.5 10,40.481 10,38 C10,35.519 12.019,33.5 14.5,33.5 C14.84,33.5 15.175,33.537 15.5,33.611 L15.5,42.389 Z M6,63 C4.622,63 3.5,61.879 3.5,60.501 L3.5,14.5 C3.5,13.121 4.622,12 6,12 L15.5,12 L15.5,30.573 C15.17,30.53 14.838,30.5 14.5,30.5 C10.365,30.5 7,33.864 7,38 C7,42.136 10.365,45.5 14.5,45.5 C14.838,45.5 15.17,45.47 15.5,45.427 L15.5,63 L6,63 Z M18.5,63 L18.5,44.417 L18.5,31.583 L18.5,12 L20.5,12 L20.5,63 L18.5,63 Z M23.5,63 L23.5,12 L58.5,12 L58.5,63 L23.5,63 Z M61.5,63 L61.5,12 L63.5,12 L63.5,18.695 L63.5,30.084 L63.5,63 L61.5,63 Z M66.5,22.605 L72.393,24.183 L71.099,29.013 L66.5,27.781 L66.5,22.605 Z M78.5,60.501 C78.5,61.879 77.379,63 76,63 L66.5,63 L66.5,30.888 L73.22,32.688 L76.067,22.063 L66.5,19.499 L66.5,12 L76,12 C77.379,12 78.5,13.121 78.5,14.5 L78.5,60.501 Z"/>
    <path d="M55.429 32.121C54.96 31.309 54.206 30.73 53.306 30.489L44.613 28.16C44.318 28.08 44.014 28.04 43.71 28.04 42.128 28.04 40.736 29.106 40.326 30.635L37.222 42.226C36.98 43.127 37.105 44.07 37.573 44.881 38.042 45.692 38.796 46.271 39.697 46.513L48.389 48.841C48.684 48.921 48.988 48.961 49.292 48.961 50.876 48.961 52.267 47.894 52.676 46.367L55.782 34.775C56.022 33.874 55.896 32.932 55.429 32.121zM52.883 33.999L49.777 45.591C49.699 45.887 49.404 46.009 49.165 45.944L40.473 43.616C40.301 43.569 40.21 43.449 40.171 43.381 40.132 43.314 40.073 43.175 40.119 43.003L43.223 31.412C43.288 31.169 43.517 31.041 43.709 31.041 43.751 31.041 43.793 31.047 43.835 31.059L52.529 33.389C52.701 33.435 52.792 33.555 52.831 33.622 52.87 33.689 52.929 33.828 52.883 33.999zM36.725 51.126C35.51 51.126 34.17 51.314 32.85 51.668 30.93 52.183 29.192 53.011 27.957 53.998 25.838 55.692 25.878 57.272 26.09 58.063 26.549 59.775 28.438 60.755 31.271 60.755 32.486 60.755 33.825 60.568 35.144 60.214 39.074 59.159 42.657 56.623 41.903 53.818 41.444 52.107 39.557 51.126 36.725 51.126zM34.367 57.318C33.298 57.604 32.227 57.756 31.271 57.756 29.669 57.756 29.047 57.348 28.994 57.334 29.039 56.888 30.484 55.407 33.628 54.563 34.697 54.276 35.769 54.125 36.725 54.125 38.327 54.125 38.948 54.532 39 54.546 38.955 54.993 37.511 56.474 34.367 57.318zM39.063 28.255L35.521 15.748 24.937 18.746 28.48 31.253 39.063 28.255zM33.452 19.451L35.36 26.186 30.549 27.549 28.641 20.814 33.452 19.451z"/>
  </g>
</svg>
