<svg xmlns="http://www.w3.org/2000/svg" width="90" height="90" viewBox="0 0 90 90">
  <g>
    <path d="M89.537,26.809 L63.191,0.462 L50.137,13.517 L37.103,6.301 L25.57,27.13 C25.025,28.114 24.886,29.25 25.176,30.337 C24.122,30.663 23.215,31.383 22.666,32.374 L11.98,51.674 L0.463,63.191 L3.772,66.501 L0.61,72.211 L20.491,83.219 L26.809,89.538 L64.759,51.586 C65.68,50.668 66.186,49.44 66.186,48.136 C66.186,48.088 66.186,48.041 66.184,47.992 C67.547,48.034 68.825,47.521 69.778,46.568 L89.537,26.809 Z M24.994,33.663 C25.423,32.889 26.475,32.578 27.261,33.013 L28.549,30.684 C28.162,30.47 27.88,30.116 27.757,29.686 C27.633,29.257 27.684,28.807 27.899,28.419 L38.142,9.919 L48.179,15.477 L43.433,20.224 C42.513,21.143 42.007,22.369 42.007,23.674 C42.007,23.722 42.007,23.77 42.009,23.818 C40.671,23.801 39.368,24.289 38.414,25.242 L18.794,44.859 L24.994,33.663 Z M4.226,71.172 L5.729,68.458 L13.675,76.404 L4.226,71.172 Z M64.765,44.69 L63.152,43.077 L61.27,44.959 L62.878,46.568 L62.878,46.568 C63.294,46.985 63.524,47.542 63.524,48.135 C63.524,48.73 63.295,49.286 62.878,49.703 L26.809,85.773 L4.226,63.191 L40.295,27.122 C41.129,26.289 42.597,26.289 43.432,27.122 L43.432,27.122 L44.333,28.023 L46.215,26.141 L45.311,25.238 C44.896,24.822 44.666,24.266 44.666,23.673 C44.666,23.079 44.895,22.522 45.313,22.105 L63.191,4.226 L85.773,26.809 L67.896,44.686 C67.063,45.517 65.6,45.521 64.765,44.69 Z"/>
    <rect width="2.661" height="2.661" x="46.765" y="28.574" transform="rotate(45.016 48.095 29.905)"/>
    <rect width="2.661" height="2.662" x="50.529" y="32.338" transform="rotate(-45 51.859 33.67)"/>
    <rect width="2.661" height="2.662" x="54.293" y="36.102" transform="rotate(-44.992 55.624 37.433)"/>
    <rect width="2.661" height="2.661" x="58.058" y="39.866" transform="rotate(-135 59.388 41.196)"/>
    <rect width="46.1" height="2.661" x="4.688" y="49.012" transform="rotate(-45 27.737 50.343)"/>
    <rect width="18.619" height="2.661" x="13.732" y="63.744" transform="rotate(-45 23.041 65.074)"/>
    <rect width="6.995" height="2.661" x="29.965" y="53.328" transform="rotate(135 33.462 54.658)"/>
    <rect width="2.661" height="28.389" x="32.065" y="54.329" transform="rotate(-134.992 33.396 68.524)"/>
    <rect width="2.662" height="6.995" x="39" y="44.289" transform="rotate(45.008 40.33 47.786)"/>
    <rect width="2.661" height="6.996" x="45.274" y="38.016" transform="rotate(-134.992 46.605 41.514)"/>
    <path d="M78.888,29.518 L78.888,22.71 L70.016,18.274 L70.016,13.773 C70.016,11.572 68.226,9.781 66.025,9.781 L65.137,9.781 C62.935,9.781 61.145,11.572 61.145,13.773 L61.145,17.83 L51.387,22.709 L51.387,29.517 L61.253,28 L61.46,30.834 L58.474,32.188 L58.474,38.2 L61.951,37.546 L62.127,39.944 L68.974,39.944 L69.163,37.536 L72.687,38.2 L72.687,32.189 L69.689,30.829 L69.901,28.137 L78.888,29.518 Z M70.024,33.904 L70.024,34.99 L66.74,34.372 L66.512,37.282 L64.6,37.282 L64.388,34.378 L61.136,34.99 L61.136,33.904 L64.25,32.491 L63.697,24.931 L54.048,26.416 L54.048,24.353 L63.807,19.474 L63.807,13.772 C63.807,13.039 64.403,12.441 65.137,12.441 L66.025,12.441 C66.758,12.441 67.355,13.038 67.355,13.772 L67.355,19.917 L76.226,24.353 L76.226,26.416 L67.471,25.069 L66.889,32.481 L70.024,33.904 Z"/>
  </g>
</svg>
