<svg xmlns="http://www.w3.org/2000/svg" width="62" height="92" viewBox="0 0 62 92">
  <g>
    <path d="M26,32.999 C16.902,32.999 9.5,40.401 9.5,49.499 C9.5,58.597 16.902,65.999 26,65.999 C35.098,65.999 42.5,58.597 42.5,49.499 C42.5,40.401 35.099,32.999 26,32.999 Z M34.371,38.927 C33.833,39.381 33.268,39.79 32.673,40.148 C32.312,39.026 31.878,38.023 31.394,37.131 C32.467,37.601 33.465,38.208 34.371,38.927 Z M26,35.999 C27.248,35.999 28.839,37.978 29.888,41.396 C28.641,41.787 27.335,41.999 26,41.999 C24.672,41.999 23.364,41.783 22.115,41.392 C23.163,37.976 24.753,35.999 26,35.999 Z M15.48,41.063 C16.4,41.795 17.681,42.686 18.574,43.155 C18.287,44.658 18.103,46.283 18.034,48 L12.588,48 C12.879,45.391 13.918,43.009 15.48,41.063 Z M12.589,50.999 L18.035,50.999 C18.105,52.755 18.295,54.418 18.593,55.95 C17.503,56.519 16.471,57.201 15.534,58.011 C13.938,56.052 12.882,53.64 12.589,50.999 Z M17.696,60.121 C18.221,59.685 18.78,59.297 19.364,58.95 C19.718,60.032 20.138,61.003 20.607,61.867 C19.56,61.408 18.585,60.817 17.696,60.121 Z M19.328,40.149 C18.73,39.792 18.158,39.387 17.62,38.934 C18.529,38.211 19.53,37.602 20.607,37.13 C20.123,38.023 19.689,39.026 19.328,40.149 Z M26,62.999 C24.764,62.999 23.193,61.058 22.145,57.7 C23.385,57.313 24.685,57.108 26.001,57.108 C27.324,57.108 28.62,57.316 29.856,57.7 C28.808,61.058 27.236,62.999 26,62.999 Z M30.557,54.772 C29.093,54.337 27.562,54.108 26.001,54.108 C24.448,54.108 22.916,54.348 21.447,54.787 C21.242,53.624 21.095,52.361 21.034,50.999 L30.967,50.999 C30.906,52.356 30.76,53.613 30.557,54.772 Z M21.034,47.999 C21.093,46.678 21.234,45.453 21.429,44.318 C22.903,44.758 24.44,44.999 26,44.999 C27.567,44.999 29.104,44.767 30.574,44.33 C30.767,45.461 30.908,46.682 30.967,47.999 L21.034,47.999 Z M31.394,61.867 C31.864,61.001 32.285,60.027 32.64,58.942 C33.222,59.289 33.776,59.684 34.302,60.123 C33.413,60.818 32.44,61.409 31.394,61.867 Z M36.458,58.021 C35.517,57.206 34.497,56.502 33.411,55.934 C33.708,54.406 33.896,52.748 33.966,50.998 L39.411,50.998 C39.117,53.645 38.059,56.062 36.458,58.021 Z M33.966,47.999 C33.898,46.286 33.714,44.665 33.428,43.164 C34.527,42.587 35.558,41.874 36.509,41.044 C38.08,42.992 39.121,45.383 39.411,47.999 L33.966,47.999 Z"/>
    <rect width="32" height="3" x="10" y="72"/>
    <rect width="16" height="3" x="18" y="77"/>
    <rect width="3" height="3" x="45.997" y="15.999"/>
    <rect width="3" height="3" x="39.997" y="15.999"/>
    <rect width="3" height="3" x="33.997" y="15.999"/>
    <rect width="3" height="3" x="51.997" y="15.999"/>
    <path d="M62,3.499 C62,1.569 60.43,0 58.5,0 L27.5,0 C25.57,0 24,1.569 24,3.499 L24,13.5 C24,15.074 24.665,16.496 25.729,17.499 C24.745,18.428 24.11,19.716 24.019,21.15 L1.343,26 L0,26 L0,92 L46.5,92 C49.532,92 52,89.532 52,86.5 L52,74 L58.5,74 C60.43,74 62,72.43 62,70.5 L62,21.499 C62,19.925 61.335,18.503 60.271,17.499 C61.335,16.496 62,15.074 62,13.5 L62,3.499 Z M24,24.222 L24,26 L15.684,26 L24,24.222 Z M49,86.5 C49,87.879 47.879,89 46.5,89 L3,89 L3,29 L46.5,29 C47.879,29 49,30.121 49,31.5 L49,86.5 Z M59,13.5 C59,14.878 57.879,15.999 56.5,15.999 L56.5,18.999 C57.879,18.999 59,20.12 59,21.499 L59,70.5 C59,70.771 58.771,71 58.5,71 L52,71 L52,31.5 C52,28.468 49.532,26 46.5,26 L27,26 L27,21.499 C27,20.12 28.122,18.999 29.5,18.999 L30.998,18.999 L30.998,15.999 L29.5,15.999 C28.122,15.999 27,14.878 27,13.5 L27,3.499 C27,3.224 27.224,3 27.5,3 L58.5,3 C58.775,3 59,3.224 59,3.499 L59,13.5 Z"/>
  </g>
</svg>
