<svg xmlns="http://www.w3.org/2000/svg" width="98" height="80" viewBox="0 0 98 80">
  <path d="M269.059,19.401 L234.097,3.624 L234.097,0.75 L231.097,0.75 L231.097,3.604 L195.355,19.396 L195.693,20.997 L195.6,21.004 C195.917,25.134 200.21,28.369 205.372,28.369 C209.114,28.369 212.37,26.674 214.018,24.191 C216.534,27.762 223.746,29.719 230.941,29.936 L230.941,57.25 L181.426,57.25 C178.953,57.25 176.942,59.262 176.942,61.734 C176.942,62.268 177.051,62.773 177.224,63.249 L172.941,63.249 L172.941,71.218 L175.941,71.218 L175.941,79.25 L183.941,79.25 L183.941,71.218 L230.94,71.218 L230.94,76.25 L223.94,76.25 L223.94,79.25 L240.941,79.25 L240.941,76.25 L233.94,76.25 L233.94,71.218 L251.941,71.218 L251.941,79.25 L259.941,79.25 L259.941,71.218 L262.941,71.218 L262.941,63.249 L255.942,63.249 L255.942,54.704 L257.444,53.837 C258.478,53.24 259.219,52.274 259.53,51.113 C259.842,49.954 259.683,48.746 259.086,47.712 C258.288,46.33 256.797,45.472 255.193,45.472 C254.411,45.472 253.638,45.679 252.96,46.071 L233.94,57.052 L233.94,29.93 C241.142,29.658 248.316,27.622 250.675,24.029 C252.369,26.402 255.555,27.995 259.173,27.995 C264.572,27.995 268.965,24.471 268.965,20.14 C268.965,20.058 268.955,19.977 268.951,19.895 L269.059,19.401 Z M251.976,19.269 L241.41,10.216 L261.472,19.269 L251.976,19.269 Z M247.366,19.269 L217.797,19.269 L232.581,6.602 L247.366,19.269 Z M223.965,10.034 L213.188,19.268 L203.068,19.268 L223.965,10.034 Z M205.372,25.369 C202.56,25.369 200.07,24.07 199.061,22.268 L211.697,22.268 C210.71,24.08 208.25,25.369 205.372,25.369 Z M180.941,76.25 L178.941,76.25 L178.941,71.218 L180.941,71.218 L180.941,76.25 Z M256.941,76.25 L254.941,76.25 L254.941,71.218 L256.941,71.218 L256.941,76.25 Z M259.941,68.218 L251.941,68.218 L183.941,68.218 L175.941,68.218 L175.941,66.249 L259.941,66.249 L259.941,68.218 Z M252.942,63.249 L241.142,63.249 L252.942,56.436 L252.942,63.249 Z M254.46,48.668 C255.147,48.273 256.099,48.536 256.488,49.213 C256.684,49.553 256.736,49.952 256.633,50.337 C256.53,50.722 256.285,51.042 255.945,51.239 L235.532,63.024 C235.305,63.155 235.058,63.221 234.797,63.221 L234.537,63.214 L181.426,63.217 C180.608,63.217 179.942,62.552 179.942,61.734 C179.942,60.916 180.608,60.25 181.426,60.25 L234.402,60.25 L254.46,48.668 Z M232.279,26.962 C223.971,26.962 217.634,24.605 216.33,22.269 L248.23,22.269 C246.986,24.448 241.148,26.962 232.279,26.962 Z M259.174,24.994 C256.562,24.994 254.226,23.872 253.098,22.268 L265.269,22.268 C264.162,23.88 261.85,24.994 259.174,24.994 Z" transform="translate(-172)"/>
</svg>
