<svg xmlns="http://www.w3.org/2000/svg" width="100" height="70" viewBox="0 0 100 70">
  <g>
    <path d="M97.5,55.051 L97.5,49.503 C97.5,46.548 97.058,43.694 96.245,41 L96.33,41 L95.731,39.442 C95.684,39.314 95.633,39.188 95.585,39.06 L95.547,38.961 C95.542,38.948 95.536,38.937 95.531,38.924 C95.297,38.317 95.043,37.718 94.77,37.13 C94.77,37.129 94.77,37.129 94.769,37.128 C94.21,35.925 93.573,34.766 92.864,33.656 C92.862,33.654 92.861,33.652 92.86,33.65 C91.07,30.852 88.822,28.377 86.221,26.327 C86.219,26.325 86.217,26.323 86.214,26.321 L85.807,26 L85.805,26 C80.852,22.238 74.682,20 67.997,20 L57.499,20 L57.499,16.712 C65.9,15.442 73.171,13.084 73.171,9 C73.171,1.881 51.088,0 39.411,0 C27.342,0 16.227,1.559 10.406,4.067 L9.5,4.458 L9.5,13.543 L10.406,13.934 C14.414,15.661 20.932,16.937 28.544,17.565 L28.544,20 L17.003,20 C10.108,20 4.5,25.608 4.5,32.503 L4.5,55 L3.003,55 C1.623,55 0.5,56.123 0.5,57.503 L0.5,59.497 C0.5,60.877 1.623,62 3.003,62 L4.5,62 L12.13,62 C12.854,66.526 16.774,70 21.5,70 C26.226,70 30.146,66.526 30.87,62 L65.63,62 C66.354,66.526 70.274,70 75,70 C80.238,70 84.5,65.738 84.5,60.5 C84.5,55.262 80.238,51 75,51 C70.273,51 66.354,54.474 65.63,59 L30.87,59 C30.146,54.474 26.226,51 21.5,51 C16.774,51 12.854,54.474 12.13,59 L8.719,59 L3.5,59 L3.5,58 L9.5,58 L9.5,55 L7.5,55 L7.5,41 L22.57,41 L22.57,38 L7.5,38 L7.5,32.503 C7.5,27.263 11.763,23 17.003,23 L67.997,23 C72.405,23 76.562,24.088 80.224,26 L69.999,26 C68.069,26 66.499,27.57 66.499,29.5 L66.499,37.5 C66.499,39.43 68.069,41 69.999,41 L93.093,41 C94,43.671 94.5,46.529 94.5,49.503 L94.5,55 L87.5,55 L87.5,58 L96.5,58 L96.5,59 L86.5,59 L86.5,62 L96.997,62 C98.377,62 99.5,60.877 99.5,59.497 L99.5,57.503 C99.5,56.295 98.64,55.284 97.5,55.051 Z M75,54 C78.584,54 81.5,56.916 81.5,60.5 C81.5,64.084 78.584,67 75,67 C71.416,67 68.5,64.084 68.5,60.5 C68.5,56.916 71.416,54 75,54 Z M21.5,54 C25.084,54 28,56.916 28,60.5 C28,64.084 25.084,67 21.5,67 C17.916,67 15,64.084 15,60.5 C15,56.916 17.916,54 21.5,54 Z M39.411,3 C56.327,3 66.704,5.863 69.438,7.973 L12.5,7.973 L12.5,6.458 C18.189,4.314 28.339,3 39.411,3 Z M12.5,10.973 L67.788,10.973 C63.583,12.9 53.896,15 39.411,15 C28.337,15 18.188,13.686 12.5,11.543 L12.5,10.973 Z M31.544,17.771 C34.089,17.919 36.724,18 39.411,18 C43.601,18 49.13,17.756 54.499,17.116 L54.499,20 L31.544,20 L31.544,17.771 Z M69.999,38 C69.728,38 69.499,37.771 69.499,37.5 L69.499,29.5 C69.499,29.229 69.728,29 69.999,29 L84.758,29 C87.76,31.46 90.184,34.535 91.862,38 L69.999,38 Z"/>
    <path d="M45.501 37.5L45.501 29.5C45.501 27.57 43.931 26 42.001 26L32 26C30.07 26 28.5 27.57 28.5 29.5L28.5 37.5C28.5 39.43 30.07 41 32 41L42.001 41C43.931 41 45.501 39.43 45.501 37.5zM31.5 37.5L31.5 29.5C31.5 29.229 31.729 29 32 29L42.001 29C42.272 29 42.501 29.229 42.501 29.5L42.501 37.5C42.501 37.771 42.272 38 42.001 38L32 38C31.729 38 31.5 37.771 31.5 37.5zM64.501 29.5C64.501 27.57 62.931 26 61.001 26L51 26C49.07 26 47.5 27.57 47.5 29.5L47.5 37.5C47.5 39.43 49.07 41 51 41L61.001 41C62.931 41 64.501 39.43 64.501 37.5L64.501 29.5zM61.501 37.5C61.501 37.771 61.272 38 61.001 38L51 38C50.729 38 50.5 37.771 50.5 37.5L50.5 29.5C50.5 29.229 50.729 29 51 29L61.001 29C61.272 29 61.501 29.229 61.501 29.5L61.501 37.5zM75 64.5C77.206 64.5 79 62.706 79 60.5 79 58.294 77.206 56.5 75 56.5 72.794 56.5 71 58.294 71 60.5 71 62.706 72.794 64.5 75 64.5zM75 59.5C75.552 59.5 76 59.948 76 60.5 76 61.052 75.552 61.5 75 61.5 74.448 61.5 74 61.052 74 60.5 74 59.948 74.448 59.5 75 59.5zM21.5 64.5C23.706 64.5 25.5 62.706 25.5 60.5 25.5 58.294 23.706 56.5 21.5 56.5 19.294 56.5 17.5 58.294 17.5 60.5 17.5 62.706 19.294 64.5 21.5 64.5zM21.5 59.5C22.052 59.5 22.5 59.948 22.5 60.5 22.5 61.052 22.052 61.5 21.5 61.5 20.948 61.5 20.5 61.052 20.5 60.5 20.5 59.948 20.948 59.5 21.5 59.5z"/>
    <rect width="31" height="3" x="32.5" y="55"/>
  </g>
</svg>
