<svg xmlns="http://www.w3.org/2000/svg" width="90" height="90" viewBox="0 0 90 90">
  <g>
    <path d="M88.794,38.934 L89.909,36.149 L56.987,22.964 C57.279,21.854 57.219,20.707 56.785,19.598 C56.225,18.172 55.182,17.109 53.769,16.524 L38.061,10.017 C35.395,8.911 32.386,10.051 31.082,12.589 L1.206,0.625 L0.091,3.41 L36.233,17.885 L28.063,48.378 L12.97,48.378 L8.654,68.876 L12.97,89.376 L71.404,89.376 L75.72,68.878 L75.72,68.878 L75.72,68.876 L73.07,56.291 L71.403,48.377 L57.299,48.377 L50.68,23.669 L88.794,38.934 Z M36.913,12.789 L52.622,19.296 C53.291,19.573 53.726,20.018 53.992,20.693 C54.145,21.085 54.192,21.458 54.155,21.83 L33.884,13.713 C34.536,12.732 35.792,12.326 36.913,12.789 Z M52.049,40.376 L33.313,40.376 L35.189,33.376 L50.174,33.376 L52.049,40.376 Z M14.351,56.377 L22.187,56.377 C22.462,56.377 22.687,56.6 22.687,56.875 L22.687,67.877 C22.687,68.152 22.462,68.375 22.187,68.375 L11.825,68.375 L14.351,56.377 Z M72.548,68.375 L62.187,68.375 C61.912,68.375 61.687,68.152 61.687,67.877 L61.687,56.875 C61.687,56.6 61.912,56.377 62.187,56.377 L70.023,56.377 L72.548,68.375 Z M69.391,53.377 L62.187,53.377 C60.257,53.377 58.687,54.945 58.687,56.875 L58.687,67.877 C58.687,69.807 60.257,71.375 62.187,71.375 L72.127,71.375 L68.97,86.375 L15.403,86.375 L12.246,71.375 L22.186,71.375 C24.116,71.375 25.686,69.807 25.686,67.877 L25.686,56.875 C25.686,54.945 24.116,53.377 22.186,53.377 L14.982,53.377 L15.403,51.377 L68.97,51.377 L69.391,53.377 Z M31.169,48.377 L32.509,43.377 L52.853,43.377 L54.193,48.377 L31.169,48.377 Z M49.37,30.376 L35.992,30.376 L39.039,19.007 L47.199,22.276 L49.37,30.376 Z"/>
    <path d="M31.187,71.375 L53.187,71.375 C55.117,71.375 56.687,69.807 56.687,67.877 L56.687,56.875 C56.687,54.945 55.117,53.377 53.187,53.377 L31.187,53.377 C29.257,53.377 27.687,54.945 27.687,56.875 L27.687,67.877 C27.687,69.807 29.257,71.375 31.187,71.375 Z M30.687,56.875 C30.687,56.605 30.916,56.377 31.187,56.377 L53.187,56.377 C53.458,56.377 53.687,56.606 53.687,56.875 L53.687,67.877 C53.687,68.147 53.458,68.375 53.187,68.375 L31.187,68.375 C30.916,68.375 30.687,68.146 30.687,67.877 L30.687,56.875 Z"/>
    <rect width="46.872" height="3" x="18.778" y="79.375"/>
  </g>
</svg>
