<svg id="Layer_1" xmlns="http://www.w3.org/2000/svg" viewBox="0 0 21.5 19.9">
  <style>
    .st0{fill:#C1713C;}
  </style>
  <path class="st0" d="M21.5 3c0-.8-.3-1.6-.9-2.1-1.1-1.1-3.1-1.1-4.2 0L6.2 11.1c-.9.1-1.8.4-2.5 1.1-1.4 1.4-1.4 2.6-1.3 3.6 0 .8.1 1.4-.9 2.4L0 19.6c1.8.2 2.2.3 3.2.3 1.5 0 4.3-.3 6.1-2.1.7-.7 1.1-1.6 1.1-2.6L20.6 5.1c.6-.6.9-1.3.9-2.1zM7.9 16.4c-1 1-2.7 1.4-3.9 1.5.4-.9.3-1.6.3-2.2 0-1.8 1.1-2.7 2.2-2.7.5 0 1 .2 1.4.6.8.8.8 2 0 2.8zM19.2 3.7L9.9 13c-.2-.3-.4-.6-.6-.8-.2-.2-.5-.4-.8-.6l9.3-9.3c.4-.4 1-.4 1.4 0 .2.2.3.4.3.7s-.1.5-.3.7z"/>
</svg>
