<svg width="1777" height="1791" viewBox="0 0 1777 1791" xmlns="http://www.w3.org/2000/svg">
  <g fill="#F4F7FC" fill-rule="evenodd">
    <path d="M274.436 334.05c-100.495 3.61-153 51-216 232s81 171 81 265S16 929 4 978c-12 49-4.564 177.05 154.436 144.05S363 953 342 905s20.436-119.95 50.436-155.95c30-36 27.146-65.395-9.436-194.05-36.582-128.655-8.068-224.56-108.564-220.95zM1524.265 997.052c-100.495 3.61-153 51-216 232s75.735 89 75.735 183-118.17 179.95-130.17 228.95c-12 49-4.565 177.05 154.435 144.05S1796 1580.954 1775 1532.954s-123.393-100.601-183-228c-59.607-127.4 32.761-311.512-67.735-307.902zM545.158 966.602c-71.035 71.179-77.115 141.645.251 316.986 77.367 175.341-140.91 186.526-76.802 255.273 64.108 68.748 270.79-104.043 295.43-60.023 24.642 44.02 139.92 275.755 233.699 143.183 93.779-132.572 34.316-263.148-13.778-283.93-48.095-20.784-166.488-35.482-169.1-82.27-2.611-46.789 74.883-132.522-39.614-201.666-114.497-69.144-159.05-158.731-230.086-87.553zM991.203 731.732C1089.21 754.255 1089.3 706.527 1197 548s295.743 36.197 320.072-54.6c24.33-90.797-155.345-197.175-131.072-241.4 24.273-44.225 83.323-242.118-78.8-251.394C1145.077-8.671 1069.14 200.2 1077 252c7.861 51.8-47.501 165.991-85.797 193C952.908 472.009 730.963 559.26 733 693c2.037 133.74 160.197 16.21 258.203 38.732z"/>
  </g>
</svg>
