<svg width="37" height="9" viewBox="0 0 37 9" fill="none" xmlns="http://www.w3.org/2000/svg">
<path d="M12.156 8.88V0H9.912L5.22 6.852L4.428 5.856C5.844 5.64 6.636 4.392 6.636 3.06C6.636 1.788 5.94 0.72 5.004 0.312C4.536 0.108 3.84 0 2.916 0H0V8.88H2.172V6.012H2.196L4.248 8.88H6.54L7.32 7.596H9.888V8.88H12.156ZM2.172 4.464V1.992H3.036C3.888 1.992 4.464 2.424 4.464 3.192C4.464 4.008 3.924 4.464 3.024 4.464H2.172ZM9.888 5.796H8.4L9.864 3.336H9.888V5.796Z" fill="#8877FF"/>
<path d="M21.2575 8.88V0H19.0855L19.1815 5.616L15.7255 0H13.7695V8.88H15.9415L15.8815 3.456L19.2895 8.88H21.2575Z" fill="#8877FF"/>
<path d="M27.807 8.88V6.888H25.047V5.364H27.723V3.372H25.047V1.992H27.807V0H22.875V8.88H27.807Z" fill="#8877FF"/>
<path d="M36.8228 8.88L33.6908 4.428L36.6308 0H34.2548L31.7468 3.996H31.7228V0H29.4548V8.88H31.7228V5.04H31.7468L34.1708 8.88H36.8228Z" fill="#8877FF"/>
</svg>
