<svg width="50" height="16" viewBox="0 0 50 16" fill="none" xmlns="http://www.w3.org/2000/svg">
  <path d="M3.127 11.857l4.276-.095.064-.477-1.596-.143s.08-.382.08-.859V2.098l.176-.175h1.452c1.212 0 1.739.318 1.69 1.94h.591l.495-2.75s-.495.095-1.15.095H1.565c-.655 0-1.07-.095-1.07-.095L0 3.863h.574c.623-1.622 1.101-1.94 2.17-1.94h1.484v8.36c0 .573-.415.954-1.1 1.034v.54zM9.718 8.36c0 1.876 1.181 3.64 3.479 3.64 1.946 0 2.792-1.542 2.792-1.542l-.176-.397s-.766.715-1.994.715c-1.723 0-2.425-1.287-2.537-2.638l.144-.191 3.717-.54c.32-.048.878-.255.878-.255-.064-1.843-1.404-2.718-2.809-2.718-1.994 0-3.494 1.749-3.494 3.926zm3.207-3.258c1.293 0 1.388 1.812 1.388 1.812l-3.031.397c.096-1.192.67-2.209 1.643-2.209zM17.073 8.376c0 1.844 1.196 3.624 3.43 3.624 1.946 0 2.728-1.446 2.728-1.446l-.175-.382s-.718.604-1.867.604c-1.787 0-2.553-1.383-2.553-2.956 0-1.478.67-2.782 1.867-2.782 1.117 0 1.165 1.288 2.01 1.288.431 0 .686-.318.686-.652 0-.54-.606-.874-1.292-1.065a2.56 2.56 0 0 1-.255-1.08c0-1.272.909-2.194 2.52-2.194.703 0 .83.207.83.954v8.042c0 .572-.255.954-.957 1.033v.493l3.606-.095.063-.43-1.164-.143s.08-.381.08-.858V6.453c.606-.525 1.435-.858 2.074-.858.638 0 1.02.286 1.02 1.446v3.29c0 .572-.223.954-.829 1.033v.493l3.638-.095.064-.43-1.325-.159s.08-.365.08-.842v-3.75c0-1.543-.75-2.147-1.85-2.147-1.34 0-2.362.875-2.936 1.653 0-.143.064-.524.064-1.287V1.86c0-1.224.16-1.812.16-1.812L26.74 0s-1.42.493-2.44.604c-1.118.095-3.351.636-3.351 2.909 0 .445.095.794.143.937-.16 0-.303-.016-.43-.016-2.33 0-3.59 2.035-3.59 3.942zM33.277 11.857l3.606-.095.064-.43-1.165-.159s.08-.365.08-.842V6.47c.606-.556 1.436-.874 2.074-.874.638 0 1.021.286 1.021 1.446v3.29c0 .572-.191.954-.83 1.033v.493l3.622-.095.064-.43-1.308-.159s.08-.365.08-.842v-3.75c0-1.543-.766-2.147-1.867-2.147-1.324 0-2.377.89-2.936 1.685.032-1.414.176-1.86.176-1.86l-.048-.047s-1.133.46-2.84.763v.46h.686c.463 0 .479.398.479 1.066v3.83c0 .572-.271.954-.958 1.033v.493zM42.47 8.376c0 2.066 1.355 3.624 3.637 3.624C48.724 12 50 9.918 50 7.931c0-2.003-1.308-3.497-3.67-3.497-2.76 0-3.86 2.067-3.86 3.942zm1.786-.397c0-1.494.575-2.94 1.899-2.94 1.468 0 2.042 1.764 2.058 3.274 0 1.462-.526 3.083-1.883 3.083-1.467 0-2.074-1.844-2.074-3.417zM18" fill="#fff"/>
</svg>
